<svg xmlns="http://www.w3.org/2000/svg" width="24" height="24" viewBox="0 0 24 24" fill="none" stroke="currentColor" stroke-linecap="round" stroke-linejoin="round" aria-hidden="true">
  <!-- 조금 가벼워지길 · 낮 · 보낸 뒤 (더 높이 + 반짝임 하나 더) -->
  <g transform="translate(0 -4.5)">
    <path d="M7 19h10a3.6 3.6 0 0 0 .6-7.15A5.2 5.2 0 0 0 7.5 11.6 3.7 3.7 0 0 0 7 19Z" fill="#FFFFFF" stroke-width="1.4"/>
    <path d="M9.4 15.2q.75-.85 1.5 0M13.1 15.2q.75-.85 1.5 0" stroke-width="1.2"/>
    <g fill="#F6A9BF" stroke="none" opacity=".85"><ellipse cx="8.6" cy="16.7" rx=".95" ry=".55"/><ellipse cx="15.4" cy="16.7" rx=".95" ry=".55"/></g>
  </g>
  <path d="M9.5 17.6v2.4M12 18v3M14.5 17.6v2.4" stroke="#7A6FD0" stroke-width="1.2"/>
  <g fill="#F6C35B" stroke="none">
    <path d="M19.2 1.6Q19.2 3.8 21.4 3.8Q19.2 3.8 19.2 6Q19.2 3.8 17 3.8Q19.2 3.8 19.2 1.6Z"/>
    <path d="M4.6 7.4Q4.6 8.6 5.8 8.6Q4.6 8.6 4.6 9.8Q4.6 8.6 3.4 8.6Q4.6 8.6 4.6 7.4Z"/>
  </g>
</svg>
